<svg version="1.1" xmlns="http://www.w3.org/2000/svg" style="display: block;" viewBox="0 0 1820 1820" width="455" height="455" preserveAspectRatio="none">
<path transform="translate(0,0)" fill="rgb(53,52,52)" d="M 1410.82 52.5508 C 1413.85 52.2542 1416.26 52.0449 1419.23 52.8026 C 1422.25 57.6328 1420.65 218.655 1420.27 236.592 C 1397.32 235.465 1374.16 235.963 1351.18 235.937 L 1239.03 235.855 C 1140.1 235.804 1041.1 234.99 942.18 236.069 C 941.447 252.885 940.372 269.711 942.065 286.499 C 962.481 287.965 996.556 285.582 1014.07 289.185 C 1020.06 290.417 1026.27 292.854 1030.94 296.856 C 1040.38 304.939 1042.5 317.264 1043.04 328.943 C 1044.67 363.999 1043.64 399.531 1043.72 434.633 C 1043.77 454.081 1045.88 483.321 1042.59 501.666 C 1041.08 510.101 1037.52 517.569 1031.58 523.798 C 1026.52 529.111 1020.21 532.478 1013.15 534.315 C 995.492 538.911 961.604 536.002 942.111 536.415 C 941.351 554.547 940.28 572.362 941.984 590.481 C 964.713 592.805 1009.28 585.199 1026.98 599.857 C 1036.24 607.524 1041.84 616.118 1042.89 628.288 C 1045.57 659.426 1043.86 691.947 1043.88 723.268 C 1043.91 748.326 1045.85 775.149 1043.05 799.933 C 1042.17 807.744 1040.47 817.049 1035.26 823.121 C 1019.42 841.571 1001.05 840.499 978.678 840.466 C 966.502 840.447 954.458 840.61 942.31 841.473 C 940.864 858.958 940.066 877.274 941.972 894.741 C 967.197 897.758 1015.13 888.654 1033.67 907.254 C 1046.17 919.79 1043.54 943.885 1043.6 960.349 L 1043.51 1053.25 C 1043.5 1070.05 1045.73 1102.07 1041.42 1117.38 C 1039.4 1124.57 1033.06 1131.34 1027.75 1136.47 C 1023.74 1140.36 1019.09 1142.19 1013.68 1143.3 C 1002.31 1145.64 989.082 1144.4 977.388 1144.72 C 966.163 1145.02 954.98 1146.24 943.745 1145.99 C 943.102 1164.02 944.626 1182.64 943.2 1200.51 C 944.105 1200.45 945.01 1200.37 945.917 1200.34 C 955.473 1199.99 965.223 1200.5 974.792 1200.64 C 993.48 1200.91 1016.02 1198.8 1030.64 1212.9 C 1041.5 1223.36 1042.84 1234.42 1043.24 1248.79 C 1044.23 1284.42 1043.65 1320.23 1043.67 1355.88 C 1043.68 1375.74 1045.84 1402.19 1041.99 1421.37 C 1040.53 1428.43 1037.08 1434.93 1032.05 1440.09 C 1027.36 1444.95 1022.19 1448.12 1015.65 1449.95 C 999.794 1454.41 960.269 1451.86 942.167 1452.09 C 941.263 1464.77 940.643 1477.34 940.565 1490.05 C 921.039 1492.01 901.065 1489.81 881.566 1492.32 C 880.287 1479.04 880.467 1465.49 880.21 1452.15 C 854.665 1451.19 810.099 1457.85 791.154 1439 C 780.482 1428.39 780.148 1416.06 779.96 1402.03 C 779.496 1367.37 779.813 1332.66 779.82 1297.99 C 779.824 1277.14 777.5 1253.06 781.794 1232.7 C 783.635 1223.97 786.71 1218.62 792.994 1212.28 C 805.593 1199.57 821.349 1200.75 837.75 1200.62 C 851.905 1200.6 866.06 1200.46 880.213 1200.2 L 880.174 1146.06 C 866.768 1145.39 853.354 1144.92 839.935 1144.63 C 830.575 1144.42 820.532 1144.98 811.338 1143.24 C 805.006 1142.04 798.583 1139.77 793.504 1135.71 C 785.773 1129.55 781.139 1117.09 780.365 1107.45 C 778 1078.02 779.791 1039.85 779.784 1009.45 C 779.779 987.998 777.62 947.087 781.056 928.082 C 782.294 921.231 786.475 914.765 790.974 909.557 C 795.129 904.748 800.117 900.236 806.192 898.106 C 821.18 892.849 861.343 896.043 880.074 894.678 L 880.012 842.106 C 855.17 837.817 817.989 847.101 797.6 831.683 C 789.807 825.79 782.128 815.897 780.708 806.078 C 779.069 794.737 779.711 782.597 779.7 771.15 L 779.684 718.074 L 779.727 660.157 C 779.744 647.815 778.956 634.378 781.015 622.189 C 782.044 616.089 784.887 609.951 788.655 605.067 C 804.025 585.152 855.457 592.571 879.373 589.935 C 879.859 572.332 879.885 554.719 879.452 537.114 C 857.446 534.36 815.532 541.594 798.635 528.262 C 789.328 520.919 781.657 511.068 780.431 498.95 C 779.157 486.361 779.721 473.306 779.707 460.655 L 779.678 397.175 C 779.679 376.76 777.635 335.409 780.755 317.266 C 781.757 311.441 784.357 306.249 788.128 301.724 C 791.558 297.607 796.575 292.626 801.598 290.648 C 813.637 285.906 861.682 287.424 879.876 285.664 C 880.024 269.27 880.018 252.874 879.856 236.48 C 856.244 234.657 831.881 235.805 808.183 235.793 L 679.973 235.754 L 492.783 235.873 C 463.552 235.897 433.934 234.777 404.753 235.792 C 402.738 212.608 403.917 188.649 403.889 165.366 C 403.626 128.068 403.727 90.7679 404.19 53.4718 C 416.066 52.3319 428.372 52.8995 440.311 52.9209 L 501.335 52.9642 L 723.607 52.6954 L 1410.82 52.5508 z M 936.837 983.463 C 921.923 988.083 905.027 991.096 890.51 983.429 C 888.728 982.489 886.977 981.492 885.26 980.439 C 879.048 969.533 879.43 958.223 878.887 946.044 C 870.131 945.247 861.291 944.758 852.506 945.456 C 845.868 945.728 839.13 945.784 832.518 946.39 C 830.627 966.931 831.11 987.588 831.126 1008.19 C 831.066 1037 831.215 1065.81 831.573 1094.62 C 847.353 1096.1 863.557 1096.63 879.371 1095.28 C 879.646 1085.6 877.97 1070.25 885.754 1063.24 C 894.072 1055.75 906.918 1054.62 917.628 1055.51 C 924.884 1056.12 933.365 1057.97 938.319 1063.75 C 944.869 1071.39 944.11 1085.5 943.787 1095 C 954.292 1095.22 964.798 1095.3 975.305 1095.25 C 979.761 1095.13 987.295 1095.73 990.824 1092.68 C 993.135 1090.68 992.636 964.375 991.687 950.877 C 991.576 949.492 991.418 948.111 991.213 946.736 C 974.955 944.033 958.492 944.899 942.093 945.309 C 941.437 957.689 941.587 970.921 937.144 982.622 C 937.038 982.901 936.939 983.182 936.837 983.463 z M 991.497 483.691 C 992.751 464.853 994.327 353.206 990.555 340.817 C 984.318 335.405 974.06 336.453 966.246 336.486 L 943.506 337.266 C 943.498 347.309 945.578 364.396 937.948 372.022 C 931.385 378.581 920.033 380.438 911.053 380.106 C 902.56 379.793 891.084 377.596 885.068 371.24 C 877.489 363.233 880.297 348.436 879.131 338.409 C 863.052 336.751 848.417 337.092 832.339 338.529 C 830.795 362.53 831.187 386.603 831.174 410.642 C 831.16 435.07 830.762 459.592 831.92 483.997 L 854.75 484.498 C 862.486 484.513 870.228 484.588 877.964 484.511 C 878.643 476.89 878.59 457.622 884.387 452.692 C 892.653 445.662 912.447 446.695 922.683 447.934 C 926.862 448.44 932.773 449.463 935.596 452.906 C 942.381 461.183 942.602 474.512 943.074 484.705 C 959.205 483.737 975.359 484.873 991.497 483.691 z M 936.587 679.481 C 923.218 682.774 903.806 687.421 891.133 679.822 C 885.028 676.161 881.93 670.214 880.413 663.436 C 878.989 657.075 879.288 649.67 878.995 643.155 C 863.731 642.046 847.384 642.28 832.27 644.686 C 830.123 692.345 829.981 741.253 831.946 788.916 C 846.285 790.929 861.476 790.06 875.931 789.821 C 877.462 789.086 878.102 789.255 878.691 787.568 C 882.378 777.019 875.386 760.305 887.423 753.909 C 897.939 748.322 913.677 747.499 925.019 750.966 C 931.398 752.916 937.663 756.88 940.679 763.041 C 944.344 770.525 943.762 781.838 943.414 790.038 C 959.46 789.907 975.812 790.52 991.703 788.081 C 992.312 758.228 992.505 728.369 992.28 698.512 C 992.256 680.511 992.827 662.3 992.039 644.338 C 977.35 641.847 964.045 641.747 949.23 642.548 C 947.584 642.797 945.911 642.625 944.785 643.934 C 941.258 648.036 940.217 669.133 937.8 676.001 C 937.391 677.162 937.011 678.324 936.587 679.481 z M 831.655 1401.75 C 847.611 1402.38 863.153 1402.66 879.107 1401.56 C 879.602 1392.9 878.502 1374.27 884.939 1368.2 C 892.956 1360.64 908.553 1360.43 918.941 1361.23 C 924.176 1361.64 932.33 1362.55 935.883 1366.75 C 942.639 1374.74 941.89 1391.85 942.445 1402.04 C 953.994 1401.92 965.734 1402.22 977.252 1401.5 L 992.2 1400.15 C 992.192 1351.67 993.412 1302.96 992.081 1254.5 C 975.999 1251.53 960.088 1252.33 943.854 1253.01 C 943.519 1263.48 944.737 1278.49 936.335 1286.16 C 928.074 1293.7 913.208 1292.78 902.797 1292.02 C 895.229 1291.47 889.513 1289.43 883.584 1284.68 C 879.526 1274.25 880.045 1264.97 880.237 1253.92 C 867.673 1252.19 855.618 1251.9 842.96 1252.38 L 832.226 1254.07 C 828.277 1301.38 832.742 1353.91 831.655 1401.75 z"/>
<path transform="translate(0,0)" fill="rgb(53,52,52)" d="M 958.547 1522.49 C 973.828 1522.3 988.788 1522.59 1003.97 1524.51 C 1004.34 1532.37 1005.55 1542.06 1000.47 1548.71 C 993.78 1557.47 921.092 1631.89 914.322 1632.74 C 904.939 1630.18 895.644 1619.32 888.412 1612.85 C 877.986 1605.15 868.658 1595.04 859.407 1585.99 C 846.105 1572.98 832.014 1560.31 820.764 1545.43 C 820.003 1538.57 820 1532 820.265 1525.1 C 840.443 1522.13 862.328 1523.41 882.753 1523.44 C 908.021 1523.52 933.289 1523.2 958.547 1522.49 z"/>
<path transform="translate(0,0)" fill="rgb(29,30,32)" d="M 977.463 1534.32 C 978.662 1534.87 979.3 1535.54 980.252 1536.43 C 981.58 1540.44 983.609 1549.09 981.823 1552.96 L 979.789 1553.47 C 978.813 1552.59 978.62 1552.51 977.815 1551.26 C 974.89 1546.74 976.011 1539.1 977.463 1534.32 z"/>
</svg>